<mxfile host="app.diagrams.net" agent="Mozilla/5.0 (Windows NT 10.0; Win64; x64) AppleWebKit/537.36 (KHTML, like Gecko) Chrome/134.0.0.0 Safari/537.36 Edg/134.0.0.0" version="26.0.16">
  <diagram name="Page-1" id="abjH8JDhDwMlrESSAU5H">
    <mxGraphModel dx="888" dy="565" grid="1" gridSize="10" guides="1" tooltips="1" connect="1" arrows="1" fold="1" page="1" pageScale="1" pageWidth="850" pageHeight="1100" math="0" shadow="0">
      <root>
        <mxCell id="0" />
        <mxCell id="1" parent="0" />
        <mxCell id="uxQ6cXoGMAoABJ1x1QL--43" value="" style="rounded=1;whiteSpace=wrap;html=1;fillColor=#fff2cc;strokeColor=#d6b656;" parent="1" vertex="1">
          <mxGeometry x="560" y="90.63" width="340" height="355" as="geometry" />
        </mxCell>
        <mxCell id="uxQ6cXoGMAoABJ1x1QL--21" value="" style="rounded=1;whiteSpace=wrap;html=1;fillColor=#fff2cc;strokeColor=#d6b656;" parent="1" vertex="1">
          <mxGeometry x="180" y="130.63" width="180" height="300" as="geometry" />
        </mxCell>
        <mxCell id="uxQ6cXoGMAoABJ1x1QL--30" style="edgeStyle=orthogonalEdgeStyle;rounded=0;orthogonalLoop=1;jettySize=auto;html=1;entryX=1;entryY=0.5;entryDx=0;entryDy=0;" parent="1" source="uxQ6cXoGMAoABJ1x1QL--18" target="uxQ6cXoGMAoABJ1x1QL--21" edge="1">
          <mxGeometry relative="1" as="geometry" />
        </mxCell>
        <mxCell id="uxQ6cXoGMAoABJ1x1QL--18" value="USB" style="ellipse;whiteSpace=wrap;html=1;aspect=fixed;fillColor=#f5f5f5;fontColor=#333333;strokeColor=#666666;" parent="1" vertex="1">
          <mxGeometry x="430" y="255.63" width="50" height="50" as="geometry" />
        </mxCell>
        <mxCell id="uxQ6cXoGMAoABJ1x1QL--22" value="Baruni" style="text;html=1;align=center;verticalAlign=middle;whiteSpace=wrap;rounded=0;" parent="1" vertex="1">
          <mxGeometry x="240" y="136.26" width="60" height="30" as="geometry" />
        </mxCell>
        <mxCell id="uxQ6cXoGMAoABJ1x1QL--23" value="" style="rounded=1;whiteSpace=wrap;html=1;fillColor=#dae8fc;strokeColor=#6c8ebf;" parent="1" vertex="1">
          <mxGeometry x="580" y="133.13" width="300" height="187.5" as="geometry" />
        </mxCell>
        <mxCell id="uxQ6cXoGMAoABJ1x1QL--33" value="" style="rounded=1;whiteSpace=wrap;html=1;fillColor=#fff2cc;strokeColor=#d6b656;" parent="1" vertex="1">
          <mxGeometry x="600" y="158.13" width="120" height="147.5" as="geometry" />
        </mxCell>
        <mxCell id="uxQ6cXoGMAoABJ1x1QL--37" value="" style="rounded=1;whiteSpace=wrap;html=1;fillColor=#d5e8d4;strokeColor=#82b366;" parent="1" vertex="1">
          <mxGeometry x="740" y="153.13" width="120" height="150" as="geometry" />
        </mxCell>
        <mxCell id="uxQ6cXoGMAoABJ1x1QL--54" style="edgeStyle=orthogonalEdgeStyle;rounded=0;orthogonalLoop=1;jettySize=auto;html=1;entryX=0;entryY=0.5;entryDx=0;entryDy=0;" parent="1" source="uxQ6cXoGMAoABJ1x1QL--34" target="uxQ6cXoGMAoABJ1x1QL--41" edge="1">
          <mxGeometry relative="1" as="geometry" />
        </mxCell>
        <mxCell id="uxQ6cXoGMAoABJ1x1QL--55" style="edgeStyle=orthogonalEdgeStyle;rounded=0;orthogonalLoop=1;jettySize=auto;html=1;entryX=0;entryY=0.5;entryDx=0;entryDy=0;" parent="1" source="uxQ6cXoGMAoABJ1x1QL--34" target="uxQ6cXoGMAoABJ1x1QL--38" edge="1">
          <mxGeometry relative="1" as="geometry" />
        </mxCell>
        <mxCell id="uxQ6cXoGMAoABJ1x1QL--63" style="edgeStyle=orthogonalEdgeStyle;rounded=0;orthogonalLoop=1;jettySize=auto;html=1;" parent="1" source="uxQ6cXoGMAoABJ1x1QL--34" target="uxQ6cXoGMAoABJ1x1QL--35" edge="1">
          <mxGeometry relative="1" as="geometry" />
        </mxCell>
        <mxCell id="uxQ6cXoGMAoABJ1x1QL--34" value="Konfirmasi Baruni" style="rounded=1;whiteSpace=wrap;html=1;fillColor=#fad9d5;strokeColor=#ae4132;" parent="1" vertex="1">
          <mxGeometry x="610" y="180.63" width="100" height="30" as="geometry" />
        </mxCell>
        <mxCell id="uxQ6cXoGMAoABJ1x1QL--56" style="edgeStyle=orthogonalEdgeStyle;rounded=0;orthogonalLoop=1;jettySize=auto;html=1;entryX=0;entryY=0.5;entryDx=0;entryDy=0;" parent="1" source="uxQ6cXoGMAoABJ1x1QL--35" target="uxQ6cXoGMAoABJ1x1QL--39" edge="1">
          <mxGeometry relative="1" as="geometry">
            <Array as="points">
              <mxPoint x="720" y="238.63" />
              <mxPoint x="720" y="278.63" />
            </Array>
          </mxGeometry>
        </mxCell>
        <mxCell id="uxQ6cXoGMAoABJ1x1QL--35" value="Parsing data" style="rounded=1;whiteSpace=wrap;html=1;fillColor=#fad9d5;strokeColor=#ae4132;" parent="1" vertex="1">
          <mxGeometry x="610" y="223.13" width="100" height="30" as="geometry" />
        </mxCell>
        <mxCell id="uxQ6cXoGMAoABJ1x1QL--36" value="Backend" style="text;html=1;align=center;verticalAlign=middle;whiteSpace=wrap;rounded=0;" parent="1" vertex="1">
          <mxGeometry x="630" y="150.63" width="60" height="30" as="geometry" />
        </mxCell>
        <mxCell id="uxQ6cXoGMAoABJ1x1QL--38" value="Identity" style="rounded=1;whiteSpace=wrap;html=1;fillColor=#fad9d5;strokeColor=#ae4132;" parent="1" vertex="1">
          <mxGeometry x="750" y="223.13" width="100" height="30" as="geometry" />
        </mxCell>
        <mxCell id="uxQ6cXoGMAoABJ1x1QL--57" style="edgeStyle=orthogonalEdgeStyle;rounded=0;orthogonalLoop=1;jettySize=auto;html=1;entryX=0.5;entryY=1;entryDx=0;entryDy=0;" parent="1" source="uxQ6cXoGMAoABJ1x1QL--39" target="uxQ6cXoGMAoABJ1x1QL--50" edge="1">
          <mxGeometry relative="1" as="geometry">
            <Array as="points">
              <mxPoint x="800" y="313.63" />
              <mxPoint x="660" y="313.63" />
            </Array>
          </mxGeometry>
        </mxCell>
        <mxCell id="uxQ6cXoGMAoABJ1x1QL--39" value="Data" style="rounded=1;whiteSpace=wrap;html=1;fillColor=#fad9d5;strokeColor=#ae4132;" parent="1" vertex="1">
          <mxGeometry x="750" y="263.13" width="100" height="30" as="geometry" />
        </mxCell>
        <mxCell id="uxQ6cXoGMAoABJ1x1QL--40" value="Frontend" style="text;html=1;align=center;verticalAlign=middle;whiteSpace=wrap;rounded=0;" parent="1" vertex="1">
          <mxGeometry x="770" y="150.63" width="60" height="30" as="geometry" />
        </mxCell>
        <mxCell id="uxQ6cXoGMAoABJ1x1QL--41" value="Status" style="rounded=1;whiteSpace=wrap;html=1;fillColor=#fad9d5;strokeColor=#ae4132;" parent="1" vertex="1">
          <mxGeometry x="750" y="180.63" width="100" height="30" as="geometry" />
        </mxCell>
        <mxCell id="uxQ6cXoGMAoABJ1x1QL--42" value="Software" style="text;html=1;align=center;verticalAlign=middle;whiteSpace=wrap;rounded=0;" parent="1" vertex="1">
          <mxGeometry x="700" y="128.13" width="60" height="30" as="geometry" />
        </mxCell>
        <mxCell id="uxQ6cXoGMAoABJ1x1QL--44" value="Desktop" style="text;html=1;align=center;verticalAlign=middle;whiteSpace=wrap;rounded=0;" parent="1" vertex="1">
          <mxGeometry x="705" y="90.63" width="60" height="30" as="geometry" />
        </mxCell>
        <mxCell id="uxQ6cXoGMAoABJ1x1QL--45" value="" style="rounded=1;whiteSpace=wrap;html=1;fillColor=#dae8fc;strokeColor=#6c8ebf;" parent="1" vertex="1">
          <mxGeometry x="670" y="358.13" width="120" height="71.25" as="geometry" />
        </mxCell>
        <mxCell id="uxQ6cXoGMAoABJ1x1QL--47" value="Downloaded data" style="rounded=1;whiteSpace=wrap;html=1;fillColor=#b0e3e6;strokeColor=#0e8088;" parent="1" vertex="1">
          <mxGeometry x="680" y="389.38" width="100" height="30" as="geometry" />
        </mxCell>
        <mxCell id="uxQ6cXoGMAoABJ1x1QL--48" value="File Explorer" style="text;html=1;align=center;verticalAlign=middle;whiteSpace=wrap;rounded=0;" parent="1" vertex="1">
          <mxGeometry x="690" y="355.63" width="80" height="30" as="geometry" />
        </mxCell>
        <mxCell id="uxQ6cXoGMAoABJ1x1QL--59" style="edgeStyle=orthogonalEdgeStyle;rounded=0;orthogonalLoop=1;jettySize=auto;html=1;entryX=0;entryY=0.5;entryDx=0;entryDy=0;" parent="1" source="uxQ6cXoGMAoABJ1x1QL--50" target="uxQ6cXoGMAoABJ1x1QL--47" edge="1">
          <mxGeometry relative="1" as="geometry">
            <Array as="points">
              <mxPoint x="590" y="277.63" />
              <mxPoint x="590" y="404.63" />
            </Array>
          </mxGeometry>
        </mxCell>
        <mxCell id="uxQ6cXoGMAoABJ1x1QL--50" value="Convert data" style="rounded=1;whiteSpace=wrap;html=1;fillColor=#fad9d5;strokeColor=#ae4132;" parent="1" vertex="1">
          <mxGeometry x="610" y="263.13" width="100" height="30" as="geometry" />
        </mxCell>
        <mxCell id="uxQ6cXoGMAoABJ1x1QL--61" style="edgeStyle=orthogonalEdgeStyle;rounded=0;orthogonalLoop=1;jettySize=auto;html=1;entryX=-0.002;entryY=0.536;entryDx=0;entryDy=0;entryPerimeter=0;" parent="1" source="uxQ6cXoGMAoABJ1x1QL--18" target="uxQ6cXoGMAoABJ1x1QL--43" edge="1">
          <mxGeometry relative="1" as="geometry" />
        </mxCell>
        <mxCell id="51Nc9i31NI5nQpIhsl8x-9" style="edgeStyle=orthogonalEdgeStyle;rounded=0;orthogonalLoop=1;jettySize=auto;html=1;" parent="1" source="51Nc9i31NI5nQpIhsl8x-2" target="51Nc9i31NI5nQpIhsl8x-3" edge="1">
          <mxGeometry relative="1" as="geometry" />
        </mxCell>
        <mxCell id="51Nc9i31NI5nQpIhsl8x-2" value="Gagal mengirim data via wireless" style="rounded=1;whiteSpace=wrap;html=1;fillColor=#e1d5e7;strokeColor=#9673a6;" parent="1" vertex="1">
          <mxGeometry x="210" y="166.26" width="120" height="40" as="geometry" />
        </mxCell>
        <mxCell id="51Nc9i31NI5nQpIhsl8x-11" style="edgeStyle=orthogonalEdgeStyle;rounded=0;orthogonalLoop=1;jettySize=auto;html=1;entryX=0.5;entryY=0;entryDx=0;entryDy=0;" parent="1" source="51Nc9i31NI5nQpIhsl8x-3" target="51Nc9i31NI5nQpIhsl8x-5" edge="1">
          <mxGeometry relative="1" as="geometry" />
        </mxCell>
        <mxCell id="51Nc9i31NI5nQpIhsl8x-3" value="Data disimpan&lt;div&gt;di record&lt;/div&gt;" style="rounded=1;whiteSpace=wrap;html=1;fillColor=#e1d5e7;strokeColor=#9673a6;" parent="1" vertex="1">
          <mxGeometry x="210" y="230.63" width="120" height="41.24" as="geometry" />
        </mxCell>
        <mxCell id="51Nc9i31NI5nQpIhsl8x-12" style="edgeStyle=orthogonalEdgeStyle;rounded=0;orthogonalLoop=1;jettySize=auto;html=1;entryX=0.5;entryY=0;entryDx=0;entryDy=0;" parent="1" source="51Nc9i31NI5nQpIhsl8x-5" target="51Nc9i31NI5nQpIhsl8x-8" edge="1">
          <mxGeometry relative="1" as="geometry" />
        </mxCell>
        <mxCell id="51Nc9i31NI5nQpIhsl8x-5" value="Konversi ke format JSON" style="rounded=1;whiteSpace=wrap;html=1;fillColor=#e1d5e7;strokeColor=#9673a6;" parent="1" vertex="1">
          <mxGeometry x="210" y="296.26" width="120" height="40" as="geometry" />
        </mxCell>
        <mxCell id="51Nc9i31NI5nQpIhsl8x-8" value="Kirim via USB" style="rounded=1;whiteSpace=wrap;html=1;fillColor=#e1d5e7;strokeColor=#9673a6;" parent="1" vertex="1">
          <mxGeometry x="210" y="356.26" width="120" height="40" as="geometry" />
        </mxCell>
      </root>
    </mxGraphModel>
  </diagram>
</mxfile>
